<?xml version="1.0" standalone="no"?>
<!DOCTYPE svg PUBLIC "-//W3C//DTD SVG 20010904//EN"
 "http://www.w3.org/TR/2001/REC-SVG-20010904/DTD/svg10.dtd">
<svg version="1.0" xmlns="http://www.w3.org/2000/svg"
 width="256.000000pt" height="256.000000pt" viewBox="0 0 256.000000 256.000000"
 preserveAspectRatio="xMidYMid meet">
<metadata>
Created by potrace 1.11, written by Peter Selinger 2001-2013
</metadata>
<g transform="translate(0.000000,256.000000) scale(0.100000,-0.100000)"
fill="#000000" stroke="none">
<path d="M863 2095 c-28 -54 -206 -404 -393 -770 -64 -126 -193 -378 -285
-560 -92 -181 -172 -336 -178 -343 -7 -9 54 -12 302 -12 l311 0 320 646 c177
356 327 655 334 666 15 21 18 15 470 -887 l211 -420 303 -3 c166 -1 302 1 302
4 0 4 -28 59 -62 123 -33 64 -65 124 -70 134 -11 22 -18 38 -90 176 -33 64
-96 186 -140 271 -44 85 -109 209 -143 275 -88 169 -177 341 -285 550 -51 99
-97 184 -102 190 -6 6 -152 10 -394 10 l-386 0 -25 -50z"/>
<path d="M1245 1138 c-21 -46 -79 -166 -127 -267 -48 -101 -88 -185 -88 -186
0 -1 -29 -63 -64 -136 l-64 -134 195 -3 c107 -1 279 -1 382 0 l188 3 -41 86
c-23 47 -63 132 -90 190 -27 57 -84 176 -126 264 -42 88 -87 184 -101 213
l-25 54 -39 -84z"/>
</g>
</svg>
